# AST/ASF file generated using VICON BodyLanguage
# -----------------------------------------------
:version 1.10
:name VICON
:units
  mass 1.0
  length 0.1
  angle deg
:documentation
   .ast/.asf automatically generated from VICON data using
   VICON BodyBuilder and BodyLanguage model FULLBODY5.MOD
:root
   order TX TY TZ RZ RY RX
   axis XYZ
   position 0 0 0  
   orientation 0 -0 0 
:bonedata
  begin
     id 1 
     name lhipjoint
     direction 0.961525 -0.229516 0.150972 
     length 0.502153 
     axis 0 -0 0  XYZ
  end
  begin
     id 2 
     name lfemur
     direction 0.173648 -0.984808 0  
     length 1.83052  
     axis 0 -0 10  XYZ
    dof rx ry rz
    limits (-180.0 180.0)
           (-180.0 180.0)
           (-180.0 180.0)
  end
  begin
     id 3 
     name ltibia
     direction 0.173629 -0.984811 0   
     length 1.50296   
     axis 0 -0 10   XYZ
    dof rx ry rz
    limits (-180.0 180.0)
           (-180.0 180.0)
           (-180.0 180.0)
  end
  begin
     id 4 
     name lfoot
     direction 7.59329e-012 -0.227408 0.9738   
     length 0.574743   
     axis -90 -1.73656e-015 10   XYZ
    dof rx ry rz
    limits (-180.0 180.0)
           (-180.0 180.0)
           (-180.0 180.0)
  end
  begin
     id 5 
     name ltoes
     direction 7.79885e-012 -4.41741e-011 1   
     length 0.28489   
     axis -90 -1.73656e-015 10   XYZ
    dof rx ry rz
    limits (-180.0 180.0)
           (-180.0 180.0)
           (-180.0 180.0)
  end
  begin
     id 6 
     name rhipjoint
     direction -0.970498 -0.201437 0.132502   
     length 0.572149  
     axis 0 -0 0  XYZ 
  end
  begin
     id 7 
     name rfemur
     direction -0.173648 -0.984808 0   
     length 1.71866   
     axis 0 -0 -10   XYZ
    dof rx ry rz
    limits (-180.0 180.0)
           (-180.0 180.0)
           (-180.0 180.0)
  end
  begin
     id 8 
     name rtibia
     direction -0.173624 -0.984812 0   
     length 1.42623   
     axis 0 -0 -10   XYZ
    dof rx ry rz
    limits (-180.0 180.0)
           (-180.0 180.0)
           (-180.0 180.0)
 end
 begin
     id 9 
     name rfoot
     direction -7.12931e-012 -0.404275 0.914637   
     length 0.524692  
     axis -90 1.73656e-015 -10   XYZ
    dof rx ry rz
    limits (-180.0 180.0)
           (-180.0 180.0)
           (-180.0 180.0)
  end
  begin
     id 10 
     name rtoes
     direction -7.79289e-012 -4.41454e-011 1   
     length 0.254983   
     axis -90 1.73656e-015 -10   XYZ
    dof rx ry rz
    limits (-180.0 180.0)
           (-180.0 180.0)
           (-180.0 180.0)
  end
  begin
     id 11 
     name lowerback
     direction -0.0214086 0.993738 0.109665   
     length 0.417614   
     axis 0 -0 0   XYZ
    dof rx ry rz
    limits (-180.0 180.0)
           (-180.0 180.0)
           (-180.0 180.0)
  end
  begin
     id 12 
     name upperback
     direction 8.15962e-005 0.99996 0.00893412   
     length 0.419234   
     axis 0 -0 0   XYZ
    dof rx ry rz
    limits (-180.0 180.0)
           (-180.0 180.0)
           (-180.0 180.0)
  end
  begin
     id 13 
     name thorax
     direction 0.00826031 0.999067 -0.0423848   
     length 0.424697   
     axis 0 -0 0   XYZ
    dof rx ry rz
    limits (-180.0 180.0)
           (-180.0 180.0)
           (-180.0 180.0)
  end
  begin
     id 14 
     name lowerneck
     direction -0.0196262 0.994272 -0.105058   
     length 0.355877   
     axis 0 -0 0   XYZ
    dof rx ry rz
    limits (-180.0 180.0)
           (-180.0 180.0)
           (-180.0 180.0)
  end
  begin
     id 15 
     name upperneck
     direction 0.000117372 0.999091 0.0426261   
     length 0.351054   
     axis 0 -0 0   XYZ
    dof rx ry rz
    limits (-180.0 180.0)
           (-180.0 180.0)
           (-180.0 180.0)
  end
  begin
     id 16
     name head
     direction 0.00157618 0.999651 0.0263619  
     length 0.374844  
     axis 0 -0 0   XYZ
    dof rx ry rz
    limits (-180.0 180.0)
           (-180.0 180.0)
           (-180.0 180.0)
  end
  begin
     id 17 
     name lshoulderjoint
     direction 0.981627 -0.190809 0  
     length 0.701763  
     axis 0 -0 -11   XYZ
    dof rx ry rz
    limits (-180.0 180.0)
           (-180.0 180.0)
           (-180.0 180.0)
  end
  begin
     id 18 
     name lhumerus
     direction 0.48481 -0.87462 -1.80676e-026   
     length 0.994704   
     axis -180 5.14477e-009 -151   XYZ
    dof rx ry rz
    limits (-180.0 180.0)
           (-180.0 180.0)
           (-180.0 180.0)
  end
  begin
     id 19
     name lradius
     direction 0.48481 -0.87462 -3.2569e-026   
     length 0.617638   
     axis -180 5.14477e-009 -151   XYZ
    dof rx ry rz
    limits (-180.0 180.0)
           (-180.0 180.0)
           (-180.0 180.0)
  end
  begin
     id 20
     name lwrist
     direction 0.48481 -0.87462 -6.73202e-026   
     length 0.308819   
     axis -180 5.14477e-009 -151   XYZ
    dof rx ry rz
    limits (-180.0 180.0)
           (-180.0 180.0)
           (-180.0 180.0)
  end
  begin
     id 21 
     name lhand
     direction 0.478366 -0.863761 -0.158376   
     length 0.291656   
     axis -180 5.14477e-009 -151   XYZ
    dof rx ry rz
    limits (-180.0 180.0)
           (-180.0 180.0)
           (-180.0 180.0)
  end
  begin
     id 22 
     name rshoulderjoint
     direction -0.981627 -0.190809 0   
     length 0.66654  
     axis 0 -0 11   XYZ 
    dof rx ry rz
    limits (-180.0 180.0)
           (-180.0 180.0)
           (-180.0 180.0)
  end
  begin
     id 23 
     name rhumerus
     direction -0.48481 -0.87462 1.77576e-026  
     length 1.15089   
     axis 180 5.14477e-009 151   XYZ
    dof rx ry rz
    limits (-180.0 180.0)
           (-180.0 180.0)
           (-180.0 180.0)
  end
  begin
     id 24 
     name rradius
     direction -0.48481 -0.87462 3.79421e-026   
     length 0.613887   
     axis 180 5.14477e-009 151   XYZ
    dof rx ry rz
    limits (-180.0 180.0)
           (-180.0 180.0)
           (-180.0 180.0)
  end
  begin
     id 25 
     name rwrist
     direction -0.48481 -0.87462 5.43623e-026   
     length 0.306944   
     axis 180 5.14477e-009 151   XYZ
    dof rx ry rz
    limits (-180.0 180.0)
           (-180.0 180.0)
           (-180.0 180.0)
  end
  begin
     id 26
     name rhand
     direction -0.479273 -0.864638 -0.150661   
     length 0.306429   
     axis 180 5.14477e-009 151   XYZ
    dof rx ry rz
    limits (-180.0 180.0)
           (-180.0 180.0)
           (-180.0 180.0)
  end
:hierarchy
  begin
    root lhipjoint rhipjoint lowerback 
    lhipjoint lfemur
    lfemur ltibia
    ltibia lfoot
    lfoot ltoes
    rhipjoint rfemur
    rfemur rtibia
    rtibia rfoot
    rfoot rtoes
    lowerback upperback
    upperback thorax
    thorax lowerneck lshoulderjoint rshoulderjoint
    lowerneck upperneck
    upperneck head
    lshoulderjoint lhumerus
    lhumerus lradius
    lradius lwrist
    lwrist lhand
    rshoulderjoint rhumerus
    rhumerus rradius
    rradius rwrist
    rwrist rhand
  end

:FULLY-SPECIFIED
:DEGREES
2180
root 8.59058 3.53449 -0.202545 -277.764 -73.8923 76.6803
lowerback -8.70091 -2.81755 -4.97284
upperback -1.77726 -3.32879 -0.912735
thorax 3.25167 -1.72502 1.45681
lowerneck 11.6075 0.310554 -1.3564
upperneck -7.82966 0.323197 1.19914
head -4.23657 0.129844 0.56598
rshoulderjoint 1.58285 -4.13409 -31.9722
rhumerus -3.27322 -21.2003 -57.5881
rradius 30.2431 -3.08514e-013 -3.53837e-014
rwrist 5.70253e-013 10.1274 1.4539e-013
rhand 11.7952 -8.83998 29.7733
lshoulderjoint 2.66201 9.72161 26.3944
lhumerus 5.74511 10.1067 55.5105
lradius 15.8711 1.59028e-013 -6.08281e-014
lwrist 5.37227e-013 -5.94974 -1.48697e-013
lhand 24.6211 5.66302 -10.5219
rfemur -45.1261 5.01646 5.93362
rtibia 55.3105 5.56597e-015 5.56597e-015
rfoot -9.32834 11.5042 -24.7645
rtoes 8.90555e-014 2.18663e-014 -1.7016e-013
lfemur -5.29071 -9.68669 -21.8497
ltibia -2.22639e-014 -3.97569e-015 -1.27222e-014
lfoot -10.1919 -5.00703 13.3079
ltoes 1.6201e-013 4.98204e-015 3.97569e-014
2181
root 8.57707 3.53515 -0.200666 -278.693 -73.8294 75.9681
lowerback -8.65744 -2.87205 -4.82545
upperback -1.78323 -3.41929 -0.79609
thorax 3.226 -1.7676 1.48681
lowerneck 11.7421 0.283257 -1.43543
upperneck -7.88962 0.275613 1.22818
head -4.27653 0.10678 0.591076
rshoulderjoint 1.53776 -3.99267 -32.0842
rhumerus -3.50143 -21.5949 -57.4738
rradius 30.0492 2.92611e-013 -1.21159e-013
rwrist 3.68139e-013 9.9663 -5.71584e-013
rhand 11.8636 -8.78661 29.4482
lshoulderjoint 2.66664 9.75802 26.3656
lhumerus 5.75773 10.1092 55.5869
lradius 15.8933 -1.65389e-013 -8.62725e-014
lwrist 5.75716e-014 -6.05879 -6.23692e-014
lhand 24.673 5.87652 -10.4174
rfemur -45.5375 4.73778 6.14119
rtibia 54.2623 -2.14687e-014 1.11319e-014
rfoot -9.53301 11.5709 -24.6802
rtoes 9.22361e-014 -2.50469e-013 1.08139e-013
lfemur -5.09259 -9.87548 -21.6537
ltibia -6.52014e-014 2.38542e-014 4.6118e-014
lfoot -10.3673 -5.01821 13.3104
ltoes 7.44449e-014 -1.55375e-013 -3.81667e-014
2182
root 8.56267 3.53536 -0.19893 -279.442 -73.7602 75.3916
lowerback -8.63735 -2.90767 -4.69633
upperback -1.77878 -3.48039 -0.716669
thorax 3.22093 -1.79635 1.49058
lowerneck 11.7454 0.265095 -1.50661
upperneck -7.84951 0.245668 1.28764
head -4.26447 0.0906718 0.622961
rshoulderjoint 1.55969 -4.03962 -32.1322
rhumerus -3.60551 -22.0797 -57.4312
rradius 29.8085 2.8943e-013 8.24956e-015
rwrist 4.52001e-013 9.89489 -3.43844e-013
rhand 12.0161 -8.57711 29.1237
lshoulderjoint 2.65215 9.73165 26.325
lhumerus 5.82044 10.1746 55.6248
lradius 15.8888 -1.39944e-013 3.06128e-014
lwrist 2.68559e-013 -5.83716 1.59057e-013
lhand 24.8095 5.60523 -10.329
rfemur -45.9161 4.48873 6.27198
rtibia 53.0033 7.95139e-016 -3.18055e-015
rfoot -9.60808 11.4865 -24.4528
rtoes 7.31528e-014 -3.53837e-014 -3.49861e-014
lfemur -4.90174 -10.032 -21.5085
ltibia -7.15625e-014 1.74931e-014 1.43125e-014
lfoot -10.551 -5.14255 13.348
ltoes 1.39149e-014 -3.71976e-014 -1.27222e-014
2183
root 8.5472 3.53488 -0.197281 -280.009 -73.6864 74.9543
lowerback -8.70459 -2.97477 -4.64193
upperback -1.71607 -3.57027 -0.572614
thorax 3.33528 -1.84242 1.59272
lowerneck 11.6306 0.292829 -1.81861
upperneck -7.84574 0.244918 1.38948
head -4.24507 0.0942573 0.704812
rshoulderjoint 1.54248 -3.96802 -32.2627
rhumerus -3.64833 -22.3141 -57.2887
rradius 29.5426 3.53042e-013 -1.98785e-015
rwrist -7.06858e-013 9.80074 -2.30778e-013
rhand 12.0726 -8.63138 28.9316
lshoulderjoint 2.67431 9.94306 26.137
lhumerus 5.98659 9.96001 55.6588
lradius 15.9151 -1.78111e-013 -7.4743e-014
lwrist -8.07324e-013 -5.87069 -1.21498e-013
lhand 24.8065 5.55348 -10.3397
rfemur -46.2326 4.19418 6.38172
rtibia 51.5564 -1.59028e-014 9.54166e-015
rfoot -9.70286 11.3864 -24.0487
rtoes 7.4743e-014 -1.04163e-013 6.36111e-015
lfemur -4.68761 -10.1527 -21.4063
ltibia -4.45278e-014 3.18055e-014 2.22639e-014
lfoot -10.8007 -5.20756 13.4203
ltoes 5.11871e-014 -8.10544e-014 -1.59028e-015
2184
root 8.53109 3.53406 -0.196069 -280.464 -73.5816 74.6355
lowerback -8.83786 -2.95243 -4.55668
upperback -1.69413 -3.54014 -0.560737
thorax 3.42593 -1.82822 1.55375
lowerneck 11.7627 0.208121 -1.69895
upperneck -7.9403 0.151596 1.41345
head -4.29413 0.0428215 0.69961
rshoulderjoint 1.53468 -3.96416 -32.1834
rhumerus -3.80864 -22.8344 -57.1626
rradius 29.2645 4.51639e-013 1.09729e-013
rwrist -5.56788e-013 9.81041 -1.50091e-013
rhand 12.1537 -8.67544 28.7959
lshoulderjoint 2.65996 9.79874 26.2688
lhumerus 6.02524 9.56596 55.6699
lradius 15.9853 -2.57625e-013 2.14687e-014
lwrist -5.85175e-013 -5.93197 1.26308e-013
lhand 24.7365 5.67136 -10.4694
rfemur -46.5341 3.8884 6.50994
rtibia 49.9352 -3.97569e-015 7.95139e-016
rfoot -9.79594 11.9955 -23.5171
rtoes 6.36111e-015 1.63799e-013 -4.77083e-014
lfemur -4.49971 -10.2527 -21.2866
ltibia -5.40694e-014 -6.36111e-015 -2.06736e-014
lfoot -10.9618 -5.39967 13.4003
ltoes -2.31584e-014 3.16565e-014 -6.36111e-015
2185
root 8.51427 3.53277 -0.194978 -280.877 -73.4757 74.3595
lowerback -9.01902 -2.9312 -4.47397
upperback -1.63681 -3.50767 -0.529366
thorax 3.58139 -1.81398 1.53317
lowerneck 11.7964 0.149807 -1.65794
upperneck -7.99998 0.0847401 1.45926
head -4.31692 0.0057828 0.711969
rshoulderjoint 1.5602 -4.04902 -32.0938
rhumerus -3.85031 -23.31 -57.0302
rradius 28.9523 -4.07111e-013 1.11816e-013
rwrist -3.89078e-013 9.92319 6.45772e-013
rhand 12.1996 -8.79087 28.7077
lshoulderjoint 2.65786 9.73908 26.3455
lhumerus 6.15441 8.95806 55.6576
lradius 16.1003 1.97194e-013 7.43455e-014
lwrist -9.91563e-014 -6.08712 2.31898e-014
lhand 24.5241 5.81618 -10.7373
rfemur -46.7568 3.66929 6.61056
rtibia 48.1708 -5.56597e-015 1.59028e-015
rfoot -9.79267 12.4339 -22.7667
rtoes -1.90833e-014 -2.38542e-014 -4.77083e-014
lfemur -4.2953 -10.3414 -21.1656
ltibia -5.40694e-014 -2.38542e-015 7.95139e-015
lfoot -11.2421 -5.12169 13.3836
ltoes 5.4467e-014 -2.61402e-014 -6.36111e-015
2186
root 8.49681 3.5312 -0.194207 -281.274 -73.3499 74.1
lowerback -9.19192 -2.92372 -4.41708
upperback -1.6034 -3.49416 -0.463356
thorax 3.71227 -1.80892 1.56178
lowerneck 11.8237 0.0984862 -1.70671
upperneck -8.04482 0.013961 1.51702
head -4.33406 -0.0310711 0.74282
rshoulderjoint 1.57489 -4.09261 -32.0685
rhumerus -3.90545 -23.8639 -56.8872
rradius 28.6521 -1.20861e-013 -6.13251e-014
rwrist 1.04935e-013 9.91339 -1.77582e-014
rhand 12.3026 -8.78589 28.6069
lshoulderjoint 2.63583 9.67648 26.317
lhumerus 6.21368 8.23327 55.5505
lradius 16.2346 1.03368e-013 6.63941e-014
lwrist 9.59769e-015 -6.19367 7.91809e-014
lhand 24.2868 5.90653 -11.1203
rfemur -46.9415 3.55302 6.66815
rtibia 46.2661 1.03368e-014 -7.95139e-016
rfoot -9.77557 12.919 -22.1602
rtoes 1.11319e-014 4.03533e-014 -3.97569e-014
lfemur -4.09896 -10.432 -21.0286
ltibia -6.36111e-015 5.56597e-015 -4.77083e-015
lfoot -11.5016 -4.89742 13.355
ltoes -3.20043e-014 -1.76421e-015 7.95139e-015
